<svg width="134" height="52" viewBox="0 0 134 52" fill="none" xmlns="http://www.w3.org/2000/svg">
<mask id="mask0_31_163" style="mask-type:alpha" maskUnits="userSpaceOnUse" x="0" y="0" width="134" height="52">
<rect width="134" height="52" fill="#D9D9D9"/>
</mask>
<g mask="url(#mask0_31_163)">
<path d="M2.02273 38V14.7273H11.3409C13.053 14.7273 14.4811 14.9811 15.625 15.4886C16.7689 15.9962 17.6288 16.7008 18.2045 17.6023C18.7803 18.4962 19.0682 19.5265 19.0682 20.6932C19.0682 21.6023 18.8864 22.4015 18.5227 23.0909C18.1591 23.7727 17.6591 24.3333 17.0227 24.7727C16.3939 25.2045 15.6742 25.5114 14.8636 25.6932V25.9205C15.75 25.9583 16.5795 26.2083 17.3523 26.6705C18.1326 27.1326 18.7652 27.7803 19.25 28.6136C19.7348 29.4394 19.9773 30.4242 19.9773 31.5682C19.9773 32.803 19.6705 33.9053 19.0568 34.875C18.4508 35.8371 17.553 36.5985 16.3636 37.1591C15.1742 37.7197 13.7083 38 11.9659 38H2.02273ZM6.94318 33.9773H10.9545C12.3258 33.9773 13.3258 33.7159 13.9545 33.1932C14.5833 32.6629 14.8977 31.9583 14.8977 31.0795C14.8977 30.4356 14.7424 29.8674 14.4318 29.375C14.1212 28.8826 13.678 28.4962 13.1023 28.2159C12.5341 27.9356 11.8561 27.7955 11.0682 27.7955H6.94318V33.9773ZM6.94318 24.4659H10.5909C11.2652 24.4659 11.8636 24.3485 12.3864 24.1136C12.9167 23.8712 13.3333 23.5303 13.6364 23.0909C13.947 22.6515 14.1023 22.125 14.1023 21.5114C14.1023 20.6705 13.803 19.9924 13.2045 19.4773C12.6136 18.9621 11.7727 18.7045 10.6818 18.7045H6.94318V24.4659ZM34.2812 30.5682V20.5455H39.1222V38H34.4744V34.8295H34.2926C33.8987 35.8523 33.2434 36.6742 32.3267 37.2955C31.4176 37.9167 30.3078 38.2273 28.9972 38.2273C27.8305 38.2273 26.804 37.9621 25.9176 37.4318C25.0313 36.9015 24.3381 36.1477 23.8381 35.1705C23.3456 34.1932 23.0956 33.0227 23.0881 31.6591V20.5455H27.929V30.7955C27.9366 31.8258 28.2131 32.6402 28.7585 33.2386C29.304 33.8371 30.035 34.1364 30.9517 34.1364C31.535 34.1364 32.0805 34.0038 32.5881 33.7386C33.0956 33.4659 33.5047 33.0644 33.8153 32.5341C34.1335 32.0038 34.2888 31.3485 34.2812 30.5682ZM47.3807 32.9773L47.392 27.1705H48.0966L53.6875 20.5455H59.2443L51.733 29.3182H50.5852L47.3807 32.9773ZM42.9943 38V14.7273H47.8352V38H42.9943ZM53.9034 38L48.767 30.3977L51.9943 26.9773L59.5739 38H53.9034ZM103.628 38.3295C102.514 38.3295 101.522 38.1364 100.651 37.75C99.7794 37.3561 99.09 36.7765 98.5824 36.0114C98.0824 35.2386 97.8324 34.2765 97.8324 33.125C97.8324 32.1553 98.0104 31.3409 98.3665 30.6818C98.7225 30.0227 99.2074 29.4924 99.821 29.0909C100.435 28.6894 101.132 28.3864 101.912 28.1818C102.7 27.9773 103.526 27.8333 104.389 27.75C105.404 27.6439 106.223 27.5455 106.844 27.4545C107.465 27.3561 107.916 27.2121 108.196 27.0227C108.476 26.8333 108.616 26.553 108.616 26.1818V26.1136C108.616 25.3939 108.389 24.8371 107.935 24.4432C107.488 24.0492 106.851 23.8523 106.026 23.8523C105.154 23.8523 104.461 24.0455 103.946 24.4318C103.431 24.8106 103.09 25.2879 102.923 25.8636L98.446 25.5C98.6733 24.4394 99.1203 23.5227 99.7869 22.75C100.454 21.9697 101.313 21.3712 102.366 20.9545C103.427 20.5303 104.654 20.3182 106.048 20.3182C107.018 20.3182 107.946 20.4318 108.832 20.6591C109.726 20.8864 110.518 21.2386 111.207 21.7159C111.904 22.1932 112.454 22.8068 112.855 23.5568C113.257 24.2992 113.457 25.1894 113.457 26.2273V38H108.866V35.5795H108.73C108.45 36.125 108.075 36.6061 107.605 37.0227C107.135 37.4318 106.571 37.7538 105.912 37.9886C105.253 38.2159 104.491 38.3295 103.628 38.3295ZM105.014 34.9886C105.726 34.9886 106.355 34.8485 106.901 34.5682C107.446 34.2803 107.874 33.8939 108.185 33.4091C108.495 32.9242 108.651 32.375 108.651 31.7614V29.9091C108.499 30.0076 108.291 30.0985 108.026 30.1818C107.768 30.2576 107.476 30.3295 107.151 30.3977C106.825 30.4583 106.499 30.5152 106.173 30.5682C105.848 30.6136 105.552 30.6553 105.287 30.6932C104.719 30.7765 104.223 30.9091 103.798 31.0909C103.374 31.2727 103.045 31.5189 102.81 31.8295C102.575 32.1326 102.457 32.5114 102.457 32.9659C102.457 33.625 102.696 34.1288 103.173 34.4773C103.658 34.8182 104.272 34.9886 105.014 34.9886ZM119.577 44.5455C118.963 44.5455 118.387 44.4962 117.849 44.3977C117.319 44.3068 116.88 44.1894 116.531 44.0455L117.622 40.4318C118.19 40.6061 118.702 40.7008 119.156 40.7159C119.618 40.7311 120.016 40.625 120.349 40.3977C120.69 40.1705 120.967 39.7841 121.179 39.2386L121.463 38.5L115.202 20.5455H120.293L123.906 33.3636H124.088L127.736 20.5455H132.861L126.077 39.8864C125.751 40.8258 125.308 41.6439 124.747 42.3409C124.194 43.0455 123.493 43.5871 122.645 43.9659C121.796 44.3523 120.774 44.5455 119.577 44.5455Z" fill="white"/>
<path d="M59.5 28.5L62.874 35.248C64.8858 39.2716 70.8884 38.2762 71.4938 33.8185V33.8185C72.1827 28.7456 79.4141 28.4654 80.4935 33.4698L81.1629 36.5736C82.3181 41.9292 89.9383 41.9865 91.1739 36.6489L98.5 5" stroke="white" stroke-width="4"/>
<path d="M98.7057 0.880648L103.399 12.0599L91.3707 10.5346L98.7057 0.880648Z" fill="white"/>
</g>
</svg>
