<svg width="120" height="30" viewBox="0 0 120 30" fill="none" xmlns="http://www.w3.org/2000/svg">
<path d="M29.632 28H26.932L25.168 21.16H27.472L28.384 26.188H28.444L29.416 21.16H31.672L32.668 26.188H32.704L33.628 21.16H35.836L34.072 28H31.384L30.568 23.632H30.496L29.632 28ZM36.5439 21.16H41.5239V22.6H38.7039V23.848H41.0799V25.144H38.7039V26.536H41.5119V28H36.5439V21.16ZM46.8798 24.388C47.4238 24.452 47.8118 24.636 48.0438 24.94C48.2758 25.236 48.3918 25.596 48.3918 26.02C48.3918 26.284 48.3518 26.536 48.2718 26.776C48.1918 27.008 48.0958 27.208 47.9838 27.376C47.8718 27.536 47.7758 27.64 47.6958 27.688C47.3758 27.896 46.3998 28 44.7678 28H42.4398V21.16H45.2598C45.8998 21.16 46.4158 21.196 46.8078 21.268C47.2078 21.332 47.5318 21.484 47.7798 21.724C48.0278 21.956 48.1518 22.312 48.1518 22.792C48.1518 23.208 48.0478 23.544 47.8398 23.8C47.6398 24.056 47.3198 24.232 46.8798 24.328V24.388ZM45.9198 22.612C45.8398 22.532 45.7438 22.484 45.6318 22.468C45.5278 22.444 45.3598 22.432 45.1278 22.432C44.8958 22.432 44.7198 22.436 44.5998 22.444V23.908H44.7198C44.7598 23.908 44.9278 23.908 45.2238 23.908C45.5198 23.908 45.7158 23.888 45.8118 23.848C45.8838 23.816 45.9478 23.732 46.0038 23.596C46.0678 23.46 46.0998 23.312 46.0998 23.152C46.0998 22.912 46.0398 22.732 45.9198 22.612ZM46.1238 26.62C46.1798 26.572 46.2238 26.484 46.2558 26.356C46.2958 26.22 46.3158 26.084 46.3158 25.948C46.3158 25.78 46.2918 25.624 46.2438 25.48C46.2038 25.328 46.1478 25.22 46.0758 25.156C46.0038 25.084 45.8998 25.036 45.7638 25.012C45.6358 24.988 45.4158 24.976 45.1038 24.976C44.9038 24.976 44.7358 24.98 44.5998 24.988V26.728C44.9758 26.736 45.3118 26.732 45.6078 26.716C45.9038 26.692 46.0758 26.66 46.1238 26.62ZM56.488 20.716V28H54.796L54.628 27.076C54.468 27.388 54.232 27.636 53.92 27.82C53.608 28.004 53.256 28.096 52.864 28.096C52.24 28.096 51.74 27.872 51.364 27.424C50.996 26.976 50.812 26.304 50.812 25.408C50.812 24.728 50.892 24.168 51.052 23.728C51.212 23.288 51.4 22.972 51.616 22.78C51.752 22.66 52.028 22.56 52.444 22.48C52.868 22.4 53.244 22.36 53.572 22.36C53.86 22.36 54.156 22.388 54.46 22.444C54.436 22.06 54.424 21.848 54.424 21.808V20.8L56.488 20.716ZM53.764 26.488C53.98 26.488 54.204 26.452 54.436 26.38V23.776C54.204 23.744 53.948 23.728 53.668 23.728C53.428 23.728 53.276 23.748 53.212 23.788C53.124 23.852 53.052 24.036 52.996 24.34C52.948 24.636 52.924 24.948 52.924 25.276C52.924 25.764 52.996 26.088 53.14 26.248C53.292 26.408 53.5 26.488 53.764 26.488ZM60.8205 26.56C61.0205 26.56 61.3925 26.54 61.9365 26.5C62.0085 26.5 62.1405 26.492 62.3325 26.476L62.5125 27.712C61.8965 28 61.0965 28.144 60.1125 28.144C59.1925 28.144 58.4845 27.912 57.9885 27.448C57.5005 26.984 57.2565 26.284 57.2565 25.348C57.2565 24.868 57.3165 24.404 57.4365 23.956C57.5645 23.508 57.7085 23.196 57.8685 23.02C58.0365 22.844 58.3485 22.692 58.8045 22.564C59.2605 22.436 59.7125 22.372 60.1605 22.372C60.8805 22.372 61.4205 22.5 61.7805 22.756C62.1405 23.012 62.3765 23.368 62.4885 23.824C62.6005 24.272 62.6565 24.876 62.6565 25.636C62.1125 25.668 61.5805 25.684 61.0605 25.684H59.3565C59.3565 25.94 59.4085 26.132 59.5125 26.26C59.6245 26.388 59.7805 26.472 59.9805 26.512C60.1805 26.544 60.4605 26.56 60.8205 26.56ZM59.4765 23.8C59.4285 23.824 59.3925 23.928 59.3685 24.112C59.3445 24.296 59.3285 24.504 59.3205 24.736H59.9445C60.3205 24.736 60.5925 24.732 60.7605 24.724C60.7605 24.34 60.7045 24.068 60.5925 23.908C60.4885 23.748 60.3045 23.668 60.0405 23.668C59.8245 23.668 59.6365 23.712 59.4765 23.8ZM66.9307 22.48H69.0787L67.3987 28H64.5547L62.8747 22.48H65.0227L65.9227 26.716H66.0427L66.9307 22.48ZM72.9025 26.56C73.1025 26.56 73.4745 26.54 74.0185 26.5C74.0905 26.5 74.2225 26.492 74.4145 26.476L74.5945 27.712C73.9785 28 73.1785 28.144 72.1945 28.144C71.2745 28.144 70.5665 27.912 70.0705 27.448C69.5825 26.984 69.3385 26.284 69.3385 25.348C69.3385 24.868 69.3985 24.404 69.5185 23.956C69.6465 23.508 69.7905 23.196 69.9505 23.02C70.1185 22.844 70.4305 22.692 70.8865 22.564C71.3425 22.436 71.7945 22.372 72.2425 22.372C72.9625 22.372 73.5025 22.5 73.8625 22.756C74.2225 23.012 74.4585 23.368 74.5705 23.824C74.6825 24.272 74.7385 24.876 74.7385 25.636C74.1945 25.668 73.6625 25.684 73.1425 25.684H71.4385C71.4385 25.94 71.4905 26.132 71.5945 26.26C71.7065 26.388 71.8625 26.472 72.0625 26.512C72.2625 26.544 72.5425 26.56 72.9025 26.56ZM71.5585 23.8C71.5105 23.824 71.4745 23.928 71.4505 24.112C71.4265 24.296 71.4105 24.504 71.4025 24.736H72.0265C72.4025 24.736 72.6745 24.732 72.8425 24.724C72.8425 24.34 72.7865 24.068 72.6745 23.908C72.5705 23.748 72.3865 23.668 72.1225 23.668C71.9065 23.668 71.7185 23.712 71.5585 23.8ZM75.4968 20.8L77.5488 20.716V28H75.4968V20.8ZM81.2302 28.156C80.2702 28.156 79.5502 27.932 79.0702 27.484C78.5982 27.028 78.3622 26.312 78.3622 25.336C78.3622 24.8 78.4102 24.332 78.5062 23.932C78.6102 23.524 78.7342 23.24 78.8782 23.08C79.0622 22.872 79.3982 22.7 79.8862 22.564C80.3822 22.428 80.8462 22.36 81.2782 22.36C82.3102 22.36 83.0462 22.58 83.4862 23.02C83.9262 23.46 84.1462 24.164 84.1462 25.132C84.1462 26.172 83.9102 26.936 83.4382 27.424C82.9662 27.912 82.2302 28.156 81.2302 28.156ZM81.2662 26.752C81.5782 26.752 81.7822 26.644 81.8782 26.428C81.9742 26.204 82.0222 25.812 82.0222 25.252C82.0222 24.86 82.0022 24.56 81.9622 24.352C81.9222 24.136 81.8462 23.98 81.7342 23.884C81.6302 23.78 81.4662 23.728 81.2422 23.728C80.9222 23.728 80.7382 23.756 80.6902 23.812C80.6262 23.868 80.5742 24.044 80.5342 24.34C80.4942 24.636 80.4742 24.944 80.4742 25.264C80.4742 25.808 80.5262 26.192 80.6302 26.416C80.7422 26.64 80.9542 26.752 81.2662 26.752ZM88.7215 22.36C89.2975 22.36 89.7535 22.552 90.0895 22.936C90.4335 23.312 90.6055 23.972 90.6055 24.916C90.6055 25.62 90.5375 26.196 90.4015 26.644C90.2655 27.084 90.1095 27.376 89.9335 27.52C89.7575 27.664 89.4495 27.78 89.0095 27.868C88.5775 27.956 88.1295 28 87.6655 28C87.5295 28 87.3015 27.992 86.9815 27.976V29.68L84.9295 29.764V22.48H86.6095L86.8135 23.332C87.0215 23.036 87.2855 22.8 87.6055 22.624C87.9335 22.448 88.3055 22.36 88.7215 22.36ZM88.2415 26.536C88.3295 26.472 88.3935 26.292 88.4335 25.996C88.4735 25.692 88.4935 25.404 88.4935 25.132C88.4935 24.684 88.4375 24.352 88.3255 24.136C88.2135 23.92 87.9895 23.812 87.6535 23.812C87.4135 23.812 87.1895 23.836 86.9815 23.884V26.548L87.3175 26.584C87.4215 26.592 87.5695 26.596 87.7615 26.596C88.0335 26.596 88.1935 26.576 88.2415 26.536ZM100.038 22.864C100.166 23.056 100.23 23.8 100.23 25.096V28H98.178V25.3V24.652C98.178 24.356 98.15 24.18 98.094 24.124C98.03 24.06 97.894 24.028 97.686 24.028L97.542 24.04C97.294 24.056 97.058 24.112 96.834 24.208C96.842 24.376 96.846 24.672 96.846 25.096V28H94.794V25.3V24.58C94.794 24.332 94.766 24.18 94.71 24.124C94.646 24.06 94.51 24.028 94.302 24.028L94.158 24.04C93.934 24.048 93.702 24.1 93.462 24.196V28H91.41V22.48H93.078L93.294 23.38C93.558 23.028 93.862 22.772 94.206 22.612C94.55 22.444 94.898 22.36 95.25 22.36C95.546 22.36 95.826 22.404 96.09 22.492C96.362 22.58 96.55 22.704 96.654 22.864C96.702 22.936 96.742 23.068 96.774 23.26C97.03 22.948 97.322 22.72 97.65 22.576C97.978 22.432 98.306 22.36 98.634 22.36C98.93 22.36 99.21 22.404 99.474 22.492C99.746 22.58 99.934 22.704 100.038 22.864ZM104.531 26.56C104.731 26.56 105.103 26.54 105.647 26.5C105.719 26.5 105.851 26.492 106.043 26.476L106.223 27.712C105.607 28 104.807 28.144 103.823 28.144C102.903 28.144 102.195 27.912 101.699 27.448C101.211 26.984 100.967 26.284 100.967 25.348C100.967 24.868 101.027 24.404 101.147 23.956C101.275 23.508 101.419 23.196 101.579 23.02C101.747 22.844 102.059 22.692 102.515 22.564C102.971 22.436 103.423 22.372 103.871 22.372C104.591 22.372 105.131 22.5 105.491 22.756C105.851 23.012 106.087 23.368 106.199 23.824C106.311 24.272 106.367 24.876 106.367 25.636C105.823 25.668 105.291 25.684 104.771 25.684H103.067C103.067 25.94 103.119 26.132 103.223 26.26C103.335 26.388 103.491 26.472 103.691 26.512C103.891 26.544 104.171 26.56 104.531 26.56ZM103.187 23.8C103.139 23.824 103.103 23.928 103.079 24.112C103.055 24.296 103.039 24.504 103.031 24.736H103.655C104.031 24.736 104.303 24.732 104.471 24.724C104.471 24.34 104.415 24.068 104.303 23.908C104.199 23.748 104.015 23.668 103.751 23.668C103.535 23.668 103.347 23.712 103.187 23.8ZM112.43 22.828C112.502 22.916 112.554 23.136 112.586 23.488C112.626 23.84 112.646 24.376 112.646 25.096V28H110.594V25.12V24.628C110.594 24.372 110.574 24.212 110.534 24.148C110.47 24.068 110.322 24.028 110.09 24.028C109.978 24.028 109.894 24.032 109.838 24.04C109.614 24.048 109.382 24.1 109.142 24.196V28H107.09V22.48H108.758L108.986 23.404C109.562 22.708 110.25 22.36 111.05 22.36C111.338 22.36 111.606 22.4 111.854 22.48C112.11 22.56 112.302 22.676 112.43 22.828ZM116.138 25.732C116.138 25.876 116.142 26.028 116.15 26.188C116.158 26.34 116.182 26.436 116.222 26.476C116.278 26.532 116.474 26.56 116.81 26.56L117.218 26.548C117.29 26.932 117.326 27.376 117.326 27.88C117.174 27.936 116.95 27.988 116.654 28.036C116.366 28.084 116.09 28.108 115.826 28.108C115.274 28.108 114.846 27.988 114.542 27.748C114.246 27.5 114.098 27.12 114.098 26.608V23.656H113.198V22.564L114.098 22.48L114.638 21.16L116.138 21.076V22.48H117.41V23.656H116.138V25.732Z" fill="#6D7C8E"/>
<path d="M1.32 17V0.487999H6.312L10.44 8.504L14.472 0.487999H19.464V17H14.472V8.36L11.424 14.12H9.384L6.312 8.36V17H1.32ZM30.2451 17.384C28.5011 17.384 26.9651 17.016 25.6371 16.28C24.3091 15.544 23.2691 14.528 22.5171 13.232C21.7811 11.936 21.4131 10.448 21.4131 8.768C21.4131 7.072 21.7811 5.576 22.5171 4.28C23.2691 2.984 24.3091 1.968 25.6371 1.232C26.9651 0.496 28.5011 0.128 30.2451 0.128C31.9891 0.128 33.5251 0.496 34.8531 1.232C36.1811 1.952 37.2131 2.96 37.9491 4.256C38.7011 5.552 39.0771 7.056 39.0771 8.768C39.0771 10.448 38.7011 11.936 37.9491 13.232C37.2131 14.528 36.1811 15.544 34.8531 16.28C33.5251 17.016 31.9891 17.384 30.2451 17.384ZM30.2451 13.016C31.2531 13.016 32.0771 12.624 32.7171 11.84C33.3731 11.056 33.7011 10.024 33.7011 8.744C33.7011 7.88 33.5491 7.12 33.2451 6.464C32.9571 5.808 32.5491 5.296 32.0211 4.928C31.5091 4.544 30.9091 4.352 30.2211 4.352C29.2131 4.352 28.3891 4.76 27.7491 5.576C27.1091 6.376 26.7891 7.432 26.7891 8.744C26.7891 10.024 27.1091 11.056 27.7491 11.84C28.3891 12.624 29.2211 13.016 30.2451 13.016ZM44.1767 17L39.2807 0.487999H44.9447L47.4887 10.784L50.0327 0.487999H55.4567L50.2967 17H44.1767ZM56.6325 17V0.487999H68.2245V4.136H62.4645V7.064H67.7205V10.088H62.4645V13.232H68.2245V17H56.6325ZM78.2863 17.384C76.5583 17.384 75.0463 17.04 73.7503 16.352C72.4703 15.648 71.4703 14.664 70.7503 13.4C70.0463 12.136 69.6943 10.664 69.6943 8.984C69.6943 7.256 70.0623 5.728 70.7983 4.4C71.5503 3.072 72.5743 2.032 73.8703 1.28C75.1823 0.512 76.6863 0.128 78.3823 0.128C80.2703 0.128 81.7503 0.496 82.8223 1.232L82.1743 5.048C81.7103 4.824 81.2223 4.664 80.7103 4.568C80.2143 4.456 79.7423 4.4 79.2943 4.4C77.9823 4.4 76.9503 4.792 76.1983 5.576C75.4463 6.36 75.0703 7.448 75.0703 8.84C75.0703 10.152 75.4303 11.184 76.1503 11.936C76.8863 12.672 77.9023 13.04 79.1983 13.04C79.7103 13.04 80.1743 12.992 80.5903 12.896C81.0223 12.8 81.5503 12.624 82.1743 12.368L82.8463 16.16C81.4543 16.976 79.9343 17.384 78.2863 17.384ZM92.0263 17.384C90.2823 17.384 88.7463 17.016 87.4183 16.28C86.0903 15.544 85.0503 14.528 84.2983 13.232C83.5623 11.936 83.1943 10.448 83.1943 8.768C83.1943 7.072 83.5623 5.576 84.2983 4.28C85.0503 2.984 86.0903 1.968 87.4183 1.232C88.7463 0.496 90.2823 0.128 92.0263 0.128C93.7703 0.128 95.3063 0.496 96.6343 1.232C97.9623 1.952 98.9943 2.96 99.7303 4.256C100.482 5.552 100.858 7.056 100.858 8.768C100.858 10.448 100.482 11.936 99.7303 13.232C98.9943 14.528 97.9623 15.544 96.6343 16.28C95.3063 17.016 93.7703 17.384 92.0263 17.384ZM92.0263 13.016C93.0343 13.016 93.8583 12.624 94.4983 11.84C95.1543 11.056 95.4823 10.024 95.4823 8.744C95.4823 7.88 95.3303 7.12 95.0263 6.464C94.7383 5.808 94.3303 5.296 93.8023 4.928C93.2903 4.544 92.6903 4.352 92.0023 4.352C90.9943 4.352 90.1703 4.76 89.5303 5.576C88.8903 6.376 88.5703 7.432 88.5703 8.744C88.5703 10.024 88.8903 11.056 89.5303 11.84C90.1703 12.624 91.0023 13.016 92.0263 13.016ZM102.804 17V0.487999H108.54C110.94 0.487999 112.892 0.831999 114.396 1.52C115.916 2.208 117.028 3.16 117.732 4.376C118.452 5.592 118.812 7.008 118.812 8.624C118.812 11.264 117.94 13.32 116.196 14.792C114.468 16.264 111.836 17 108.3 17H102.804ZM108.108 12.8H109.644C110.924 12.8 111.876 12.416 112.5 11.648C113.124 10.864 113.436 9.84 113.436 8.576C113.436 7.408 113.132 6.472 112.524 5.768C111.932 5.048 110.972 4.688 109.644 4.688H108.108V12.8Z" fill="#6D7C8E"/>
</svg>
