<svg width="24" height="24" viewBox="0 0 24 24" fill="none" xmlns="http://www.w3.org/2000/svg">
<g clip-path="url(#clip0_293_35)">
<path d="M19.0712 4.92893C22.9764 8.83417 22.9764 15.1658 19.0712 19.071C15.1659 22.9763 8.83425 22.9763 4.92905 19.071C1.02381 15.1658 1.02381 8.83413 4.92905 4.92893C8.83429 1.02369 15.166 1.02369 19.0712 4.92893Z" stroke="white" stroke-width="1.5" stroke-linecap="round" stroke-linejoin="round"/>
<path d="M8.08201 11.983C7.93101 11.595 7.83301 11.185 7.83301 10.75C7.83301 8.679 9.69901 7 12 7C14.301 7 16.167 8.679 16.167 10.75C16.167 12.821 14.488 14.5 12.417 14.5C11.592 14.5 10.836 14.226 10.217 13.774M10.98 10.31L9.50001 17" stroke="white" stroke-width="1.5" stroke-linecap="round" stroke-linejoin="round"/>
</g>
<defs>
<clipPath id="clip0_293_35">
<rect width="24" height="24" fill="white"/>
</clipPath>
</defs>
</svg>
