<svg width="24" height="24" viewBox="0 0 24 24" fill="none" xmlns="http://www.w3.org/2000/svg">
<g clip-path="url(#clip0_293_20)">
<path d="M19.0712 4.92893C22.9764 8.83417 22.9764 15.1658 19.0712 19.071C15.1659 22.9763 8.83425 22.9763 4.92905 19.071C1.02381 15.1658 1.02381 8.83413 4.92905 4.92893C8.83429 1.02369 15.166 1.02369 19.0712 4.92893Z" stroke="white" stroke-width="1.5" stroke-linecap="round" stroke-linejoin="round"/>
<path d="M17.75 8.62382C17.613 8.02182 17.206 7.54582 16.689 7.38282C15.753 7.09082 12 7.09082 12 7.09082C12 7.09082 8.249 7.09082 7.312 7.38282C6.796 7.54382 6.389 8.01882 6.25 8.62382C6 9.71682 6 11.9998 6 11.9998C6 11.9998 6 14.2828 6.25 15.3758C6.387 15.9778 6.794 16.4538 7.311 16.6168C8.249 16.9088 12 16.9088 12 16.9088C12 16.9088 15.753 16.9088 16.688 16.6168C17.203 16.4558 17.61 15.9808 17.749 15.3758C18 14.2828 18 11.9998 18 11.9998C18 11.9998 18 9.71682 17.75 8.62382Z" stroke="white" stroke-linecap="round" stroke-linejoin="round"/>
<path d="M10.577 14.2731L14.514 12.0001L10.578 9.72705V14.2731H10.577Z" stroke="white" stroke-linecap="round" stroke-linejoin="round"/>
</g>
<defs>
<clipPath id="clip0_293_20">
<rect width="24" height="24" fill="white"/>
</clipPath>
</defs>
</svg>
